<svg width="21" height="32" viewBox="0 0 21 32" fill="none" xmlns="http://www.w3.org/2000/svg">
<path d="M8.91672 31.9825C8.77781 32.0058 8.63576 32.0058 8.49685 31.9825C8.19388 31.8943 7.92908 31.7131 7.74276 31.4664C7.55643 31.2197 7.45878 30.9211 7.46465 30.616V30.4304L9.03918 19.7175H1.44645C1.1904 19.7177 0.939196 19.6502 0.720182 19.5223C0.501169 19.3944 0.32274 19.211 0.204318 18.9921C0.0705294 18.7721 0 18.5217 0 18.2666C0 18.0116 0.0705294 17.7612 0.204318 17.5412L3.70327 11.6533L10.8761 0.653612C11.0355 0.394075 11.2815 0.194355 11.5739 0.0870997C11.8662 -0.0201558 12.1877 -0.0286038 12.4857 0.0631373C12.7886 0.15133 13.0534 0.332554 13.2397 0.579233C13.4261 0.825912 13.5237 1.12454 13.5178 1.42966V1.61524L11.9433 12.3281H19.5536C19.8096 12.3279 20.0608 12.3954 20.2798 12.5234C20.4988 12.6513 20.6773 12.8347 20.7957 13.0536C20.9295 13.2736 21 13.524 21 13.779C21 14.0341 20.9295 14.2845 20.7957 14.5045L17.2967 20.3923L10.1239 31.392C9.99205 31.582 9.81178 31.7361 9.60038 31.8395C9.38898 31.9429 9.15355 31.9922 8.91672 31.9825ZM3.38837 17.1194H10.3863C10.5793 17.1216 10.7699 17.1605 10.9473 17.2337C11.1248 17.307 11.2855 17.4132 11.4203 17.5464C11.5552 17.6796 11.6615 17.837 11.7332 18.0098C11.8049 18.1826 11.8407 18.3673 11.8384 18.5534V18.739L10.8062 25.7235L15.1799 18.9752L17.6991 14.7913H10.7012C10.5082 14.7891 10.3176 14.7502 10.1401 14.677C9.96271 14.6037 9.80198 14.4975 9.66715 14.3643C9.53231 14.2311 9.42599 14.0737 9.35426 13.9009C9.28254 13.7281 9.24681 13.5434 9.24912 13.3573V13.1717L10.2813 6.1872L5.90762 12.9355L3.38837 17.1194Z" fill="white"/>
</svg>
