<svg width="37" height="28" viewBox="0 0 37 28" fill="none" xmlns="http://www.w3.org/2000/svg">
<path d="M11.5625 11.6667C11.5625 10.429 12.0498 9.242 12.9171 8.36683C13.7845 7.49166 14.9609 7 16.1875 7C17.4141 7 18.5905 7.49166 19.4579 8.36683C20.3252 9.242 20.8125 10.429 20.8125 11.6667C20.8125 12.9043 20.3252 14.0913 19.4579 14.9665C18.5905 15.8417 17.4141 16.3333 16.1875 16.3333C14.9609 16.3333 13.7845 15.8417 12.9171 14.9665C12.0498 14.0913 11.5625 12.9043 11.5625 11.6667ZM16.1875 9.33333C15.5742 9.33333 14.986 9.57917 14.5523 10.0168C14.1186 10.4543 13.875 11.0478 13.875 11.6667C13.875 12.2855 14.1186 12.879 14.5523 13.3166C14.986 13.7542 15.5742 14 16.1875 14C16.8008 14 17.389 13.7542 17.8227 13.3166C18.2564 12.879 18.5 12.2855 18.5 11.6667C18.5 11.0478 18.2564 10.4543 17.8227 10.0168C17.389 9.57917 16.8008 9.33333 16.1875 9.33333ZM3.46875 0C2.54878 0 1.66649 0.368748 1.01597 1.02513C0.365457 1.6815 0 2.57174 0 3.5V19.8333C0 20.7616 0.365457 21.6518 1.01597 22.3082C1.66649 22.9646 2.54878 23.3333 3.46875 23.3333H28.9062C29.8262 23.3333 30.7085 22.9646 31.359 22.3082C32.0095 21.6518 32.375 20.7616 32.375 19.8333V3.5C32.375 2.57174 32.0095 1.6815 31.359 1.02513C30.7085 0.368748 29.8262 0 28.9062 0H3.46875ZM2.3125 3.5C2.3125 3.19058 2.43432 2.89383 2.65116 2.67504C2.868 2.45625 3.16209 2.33333 3.46875 2.33333H6.9375V4.66667C6.9375 5.2855 6.69386 5.879 6.26018 6.31658C5.82651 6.75417 5.23831 7 4.625 7H2.3125V3.5ZM2.3125 9.33333H4.625C5.85163 9.33333 7.02801 8.84167 7.89537 7.9665C8.76272 7.09133 9.25 5.90434 9.25 4.66667V2.33333H23.125V4.66667C23.125 5.90434 23.6123 7.09133 24.4796 7.9665C25.347 8.84167 26.5234 9.33333 27.75 9.33333H30.0625V14H27.75C26.5234 14 25.347 14.4917 24.4796 15.3668C23.6123 16.242 23.125 17.429 23.125 18.6667V21H9.25V18.6667C9.25 17.429 8.76272 16.242 7.89537 15.3668C7.02801 14.4917 5.85163 14 4.625 14H2.3125V9.33333ZM25.4375 2.33333H28.9062C29.2129 2.33333 29.507 2.45625 29.7238 2.67504C29.9407 2.89383 30.0625 3.19058 30.0625 3.5V7H27.75C27.1367 7 26.5485 6.75417 26.1148 6.31658C25.6811 5.879 25.4375 5.2855 25.4375 4.66667V2.33333ZM30.0625 16.3333V19.8333C30.0625 20.1428 29.9407 20.4395 29.7238 20.6583C29.507 20.8771 29.2129 21 28.9062 21H25.4375V18.6667C25.4375 18.0478 25.6811 17.4543 26.1148 17.0168C26.5485 16.5792 27.1367 16.3333 27.75 16.3333H30.0625ZM6.9375 21H3.46875C3.16209 21 2.868 20.8771 2.65116 20.6583C2.43432 20.4395 2.3125 20.1428 2.3125 19.8333V16.3333H4.625C5.23831 16.3333 5.82651 16.5792 6.26018 17.0168C6.69386 17.4543 6.9375 18.0478 6.9375 18.6667V21ZM34.6875 19.8333C34.6875 21.3804 34.0784 22.8642 32.9942 23.9581C31.91 25.0521 30.4395 25.6667 28.9062 25.6667H4.82156C5.06077 26.3493 5.50394 26.9404 6.08999 27.3583C6.67604 27.7762 7.37612 28.0004 8.09375 28H28.9062C31.0528 28 33.1115 27.1396 34.6294 25.608C36.1473 24.0765 37 21.9993 37 19.8333V8.16667C37.0004 7.44257 36.7782 6.73618 36.364 6.14485C35.9498 5.55352 35.3641 5.10636 34.6875 4.865V19.8333Z" fill="white"/>
</svg>
