<svg width="41" height="28" viewBox="0 0 41 28" fill="none" xmlns="http://www.w3.org/2000/svg">
<path d="M40.7297 9.53034L36.6422 1.4068C36.4916 1.1078 36.2832 0.841197 36.0289 0.622208C35.7745 0.403219 35.4793 0.236137 35.16 0.130503C34.8406 0.0248696 34.5035 -0.0172466 34.1677 0.00656007C33.832 0.0303667 33.5043 0.11963 33.2033 0.269252L29.2199 2.24684L20.8287 0.041742C20.6134 -0.013914 20.3873 -0.013914 20.172 0.041742L11.7807 2.24684L7.79731 0.269252C7.49632 0.11963 7.16861 0.0303667 6.83289 0.00656007C6.49717 -0.0172466 6.16002 0.0248696 5.84069 0.130503C5.52136 0.236137 5.2261 0.403219 4.97178 0.622208C4.71746 0.841197 4.50906 1.1078 4.35848 1.4068L0.270966 9.52874C0.120337 9.82772 0.0304726 10.1532 0.0065057 10.4867C-0.0174612 10.8202 0.0249384 11.1551 0.131283 11.4723C0.237628 11.7895 0.405835 12.0828 0.626299 12.3354C0.846762 12.588 1.11516 12.795 1.41617 12.9446L5.74074 15.094L14.6285 21.399C14.7596 21.4915 14.9067 21.5589 15.0626 21.5979L25.3134 24.1435C25.5281 24.1969 25.753 24.1943 25.9664 24.1357C26.1797 24.0772 26.3741 23.9647 26.5307 23.8094L32.9374 17.4455L35.3528 15.0463L39.5845 12.9446C40.192 12.6425 40.6539 12.1132 40.8686 11.4729C41.0833 10.8327 41.0334 10.134 40.7297 9.53034ZM31.938 14.8394L26.4266 10.4547C26.1797 10.2583 25.8683 10.1595 25.5525 10.1775C25.2367 10.1954 24.9388 10.3287 24.716 10.5517C21.8634 13.406 18.684 13.0448 16.6563 11.772L23.582 5.08992H28.6769L33.0351 13.7464L31.938 14.8394ZM25.2317 21.4993L15.9227 19.1876L8.04237 13.5969L12.5271 4.6874L20.5003 2.5889L22.07 3.00096L14.8624 9.95035L14.8496 9.96467C14.5782 10.2342 14.3713 10.5608 14.244 10.9203C14.1168 11.2799 14.0724 11.6632 14.1142 12.0421C14.156 12.4209 14.283 12.7856 14.4856 13.1093C14.6883 13.4329 14.9616 13.7072 15.2852 13.9119C18.5783 16.0008 22.5521 15.662 25.6818 13.1164L30.1105 16.65L25.2317 21.4993ZM21.1122 27.0359C21.0429 27.311 20.8832 27.5552 20.6583 27.7299C20.4335 27.9045 20.1563 27.9996 19.8709 28C19.7656 28.0001 19.6607 27.9872 19.5585 27.9618L12.8779 26.3024C12.7218 26.2641 12.5745 26.1966 12.4438 26.1036L8.22336 23.1093C7.96386 22.9069 7.79295 22.6129 7.74622 22.2885C7.6995 21.9641 7.78056 21.6343 7.97252 21.3677C8.16449 21.1012 8.45256 20.9184 8.77676 20.8576C9.10096 20.7968 9.43629 20.8625 9.71293 21.0411L13.7348 23.8953L20.18 25.4926C20.5096 25.5745 20.793 25.7831 20.9678 26.0725C21.1426 26.3619 21.1945 26.7084 21.1122 27.0359Z" fill="white"/>
</svg>
