<svg width="35" height="32" viewBox="0 0 35 32" fill="none" xmlns="http://www.w3.org/2000/svg">
<path d="M4.0625 2.46151C3.2 2.46151 2.5 3.15074 2.5 3.99996V26.4613C2.5 27.2773 2.82924 28.0599 3.41529 28.6369C4.00134 29.214 4.7962 29.5381 5.625 29.5381H19.31C19.1588 29.1292 19.0822 28.6971 19.0837 28.2619V3.99996C19.0837 3.15074 18.3838 2.46151 17.5212 2.46151H4.0625ZM22.5 31.9812V31.9997H5.625C4.13316 31.9997 2.70242 31.4161 1.64752 30.3775C0.592632 29.3388 0 27.9301 0 26.4613V3.99996C0 2.9391 0.428012 1.9217 1.18988 1.17156C1.95175 0.421423 2.98506 0 4.0625 0H17.5212C18.5987 0 19.632 0.421423 20.3939 1.17156C21.1557 1.9217 21.5837 2.9391 21.5837 3.99996V6.15378H31.25V6.15501L31.3625 6.15378C32.3272 6.15378 33.2524 6.53112 33.9346 7.20278C34.6168 7.87444 35 8.78541 35 9.73528V20.6152C35 21.676 34.572 22.6934 33.8101 23.4436C33.0483 24.1937 32.0149 24.6151 30.9375 24.6151H27.4225L26.6138 28.9388C26.4412 29.8618 25.9223 30.6871 25.1602 31.2508C24.398 31.8145 23.4484 32.0752 22.5 31.9812ZM27.9075 8.61529H21.5825V28.2619C21.5804 28.5817 21.7003 28.8906 21.9185 29.1275C22.1368 29.3644 22.4373 29.512 22.7608 29.541C23.0843 29.5701 23.407 29.4786 23.6652 29.2846C23.9234 29.0905 24.0982 28.8081 24.155 28.4932L27.785 9.08667C27.8158 8.92421 27.8567 8.76709 27.9075 8.61529ZM27.8825 22.1536H30.9375C31.8 22.1536 32.5 21.4644 32.5 20.6152V9.73528C32.5001 9.45579 32.3941 9.18635 32.2028 8.97988C32.0115 8.77341 31.7487 8.64482 31.466 8.61938C31.1834 8.59394 30.9012 8.67348 30.6751 8.84238C30.4489 9.01127 30.2951 9.25733 30.2437 9.53221L27.8825 22.1536ZM7.5 7.38454C7.5 7.71095 7.3683 8.024 7.13388 8.25481C6.89946 8.48562 6.58152 8.61529 6.25 8.61529C5.91848 8.61529 5.60054 8.48562 5.36612 8.25481C5.1317 8.024 5 7.71095 5 7.38454C5 7.05812 5.1317 6.74507 5.36612 6.51426C5.60054 6.28345 5.91848 6.15378 6.25 6.15378C6.58152 6.15378 6.89946 6.28345 7.13388 6.51426C7.3683 6.74507 7.5 7.05812 7.5 7.38454ZM6.25 14.7691C5.91848 14.7691 5.60054 14.8987 5.36612 15.1296C5.1317 15.3604 5 15.6734 5 15.9998C5 16.3262 5.1317 16.6393 5.36612 16.8701C5.60054 17.1009 5.91848 17.2306 6.25 17.2306H15C15.3315 17.2306 15.6495 17.1009 15.8839 16.8701C16.1183 16.6393 16.25 16.3262 16.25 15.9998C16.25 15.6734 16.1183 15.3604 15.8839 15.1296C15.6495 14.8987 15.3315 14.7691 15 14.7691H6.25ZM5 23.3844C5 23.0579 5.1317 22.7449 5.36612 22.5141C5.60054 22.2833 5.91848 22.1536 6.25 22.1536H15C15.3315 22.1536 15.6495 22.2833 15.8839 22.5141C16.1183 22.7449 16.25 23.0579 16.25 23.3844C16.25 23.7108 16.1183 24.0238 15.8839 24.2546C15.6495 24.4855 15.3315 24.6151 15 24.6151H6.25C5.91848 24.6151 5.60054 24.4855 5.36612 24.2546C5.1317 24.0238 5 23.7108 5 23.3844Z" fill="white"/>
</svg>
