<svg width="33" height="27" viewBox="0 0 33 27" fill="none" xmlns="http://www.w3.org/2000/svg">
<path fill-rule="evenodd" clip-rule="evenodd" d="M13.3444 0H19.6556C22.4766 0 24.7114 1.83923e-07 26.4595 0.236057C28.2584 0.479829 29.7149 0.992057 30.8645 2.14611C32.0125 3.30171 32.5221 4.76589 32.7646 6.57411C32.9028 7.61246 32.9595 8.82051 32.9826 10.2199C33.0016 10.3373 33.0037 10.4568 32.9887 10.5747C32.9979 11.447 33.0015 12.3933 32.9994 13.4136V13.5864C32.9994 16.4222 32.9994 18.6686 32.7646 20.4259C32.5221 22.2341 32.0125 23.6983 30.8645 24.8539C29.7149 26.0079 28.2584 26.5202 26.4595 26.7639C24.7098 27 22.4766 27 19.6556 27H13.3444C10.5234 27 8.28865 27 6.54048 26.7639C4.74165 26.5202 3.2851 26.0079 2.13551 24.8539C0.987455 23.6983 0.477891 22.2341 0.235387 20.4259C0.000558116 18.667 0.000558125 16.4222 0.000558125 13.5864V13.4136C-0.00148832 12.3933 0.00209291 11.447 0.0113019 10.5747C-0.00417617 10.4569 -0.00262528 10.3373 0.0159064 10.2199C0.0404637 8.82051 0.0972525 7.61246 0.235387 6.57411C0.477891 4.76589 0.987455 3.30171 2.13551 2.14611C3.2851 0.992057 4.74165 0.479829 6.54048 0.236057C8.29019 1.83923e-07 10.5234 0 13.3444 0ZM2.30588 11.5714C2.30383 12.1701 2.30281 12.8129 2.30281 13.5C2.30281 16.4422 2.30588 18.5328 2.51768 20.1189C2.72488 21.6694 3.11473 22.5643 3.76397 23.2169C4.4132 23.8695 5.3034 24.2614 6.84744 24.4697C8.42525 24.6826 10.5034 24.6857 13.4303 24.6857H19.5697C22.4966 24.6857 24.5763 24.6826 26.1541 24.4697C27.6966 24.2614 28.5868 23.8695 29.236 23.2169C29.8853 22.5643 30.2751 21.6694 30.4823 20.1173C30.6941 18.5313 30.6972 16.4422 30.6972 13.5C30.6972 12.8129 30.6962 12.1701 30.6941 11.5714H2.30588ZM30.6573 9.25714H2.34271C2.37341 8.35149 2.42559 7.56926 2.51768 6.88114C2.72488 5.33057 3.11473 4.43571 3.76397 3.78309C4.4132 3.13046 5.3034 2.73857 6.84744 2.53029C8.42525 2.31737 10.5034 2.31429 13.4303 2.31429H19.5697C22.4966 2.31429 24.5763 2.31737 26.1541 2.53029C27.6966 2.73857 28.5868 3.13046 29.236 3.78309C29.8853 4.43571 30.2751 5.33057 30.4823 6.88269C30.5744 7.56926 30.6266 8.35149 30.6573 9.25714ZM6.13989 19.6714C6.13989 19.3645 6.26116 19.0702 6.47704 18.8532C6.69292 18.6362 6.98571 18.5143 7.29101 18.5143H13.4303C13.7356 18.5143 14.0284 18.6362 14.2443 18.8532C14.4602 19.0702 14.5815 19.3645 14.5815 19.6714C14.5815 19.9783 14.4602 20.2726 14.2443 20.4897C14.0284 20.7067 13.7356 20.8286 13.4303 20.8286H7.29101C6.98571 20.8286 6.69292 20.7067 6.47704 20.4897C6.26116 20.2726 6.13989 19.9783 6.13989 19.6714ZM16.1163 19.6714C16.1163 19.3645 16.2376 19.0702 16.4534 18.8532C16.6693 18.6362 16.9621 18.5143 17.2674 18.5143H19.5697C19.875 18.5143 20.1678 18.6362 20.3836 18.8532C20.5995 19.0702 20.7208 19.3645 20.7208 19.6714C20.7208 19.9783 20.5995 20.2726 20.3836 20.4897C20.1678 20.7067 19.875 20.8286 19.5697 20.8286H17.2674C16.9621 20.8286 16.6693 20.7067 16.4534 20.4897C16.2376 20.2726 16.1163 19.9783 16.1163 19.6714Z" fill="white"/>
</svg>
