<svg width="28" height="29" viewBox="0 0 28 29" fill="none" xmlns="http://www.w3.org/2000/svg">
<path d="M11.7895 0L22.5444 3.306C22.8444 3.39814 23.1065 3.5822 23.2927 3.83132C23.4788 4.08044 23.5791 4.38157 23.5789 4.69075V7.25H26.5263C26.9172 7.25 27.292 7.40277 27.5684 7.6747C27.8447 7.94662 28 8.31544 28 8.7V20.3C28 20.6846 27.8447 21.0534 27.5684 21.3253C27.292 21.5972 26.9172 21.75 26.5263 21.75L21.7811 21.7514C21.2107 22.4909 20.5181 23.1434 19.7179 23.68L11.7895 29L3.86105 23.6814C2.67109 22.8831 1.69732 21.8109 1.02442 20.558C0.351515 19.3051 -0.00014917 17.9094 4.74672e-08 16.4923V4.69075C0.000177735 4.38182 0.100633 4.08101 0.286723 3.83218C0.472814 3.58336 0.734811 3.39951 1.03453 3.30745L11.7895 0ZM11.7895 3.0363L2.94737 5.7565V16.4923C2.94716 17.38 3.15405 18.256 3.55212 19.0526C3.95018 19.8493 4.52879 20.5454 5.24337 21.0873L5.52189 21.2846L11.7895 25.4896L17.3629 21.75H10.3158C9.92494 21.75 9.55011 21.5972 9.27374 21.3253C8.99737 21.0534 8.8421 20.6846 8.8421 20.3V8.7C8.8421 8.31544 8.99737 7.94662 9.27374 7.6747C9.55011 7.40277 9.92494 7.25 10.3158 7.25H20.6316V5.7565L11.7895 3.0363ZM11.7895 14.5V18.85H25.0526V14.5H11.7895ZM11.7895 11.6H25.0526V10.15H11.7895V11.6Z" fill="white"/>
</svg>
