<svg width="29" height="29" viewBox="0 0 29 29" fill="none" xmlns="http://www.w3.org/2000/svg">
<path d="M14.5 0C6.5047 0 0 6.5047 0 14.5V20.5074C0 21.9921 1.30065 23.2 2.9 23.2H4.35C4.73456 23.2 5.10338 23.0472 5.3753 22.7753C5.64723 22.5034 5.8 22.1346 5.8 21.75V14.2927C5.8 13.9081 5.64723 13.5393 5.3753 13.2673C5.10338 12.9954 4.73456 12.8427 4.35 12.8427H3.0334C3.8396 7.23115 8.6681 2.9 14.5 2.9C20.3319 2.9 25.1604 7.23115 25.9666 12.8427H24.65C24.2654 12.8427 23.8966 12.9954 23.6247 13.2673C23.3528 13.5393 23.2 13.9081 23.2 14.2927V23.2C23.2 24.7994 21.8994 26.1 20.3 26.1H17.4V24.65H11.6V29H20.3C23.4987 29 26.1 26.3987 26.1 23.2C27.6994 23.2 29 21.9921 29 20.5074V14.5C29 6.5047 22.4953 0 14.5 0Z" fill="white"/>
</svg>
