<svg width="62" height="62" viewBox="0 0 62 62" fill="none" xmlns="http://www.w3.org/2000/svg">
<rect width="62" height="62" rx="31" fill="#B0A9A9"/>
<path d="M27.5731 34.8006H21.3878C20.8255 34.8006 20.418 34.5541 20.1652 34.0612C19.9124 33.5682 19.9497 33.0954 20.2771 32.6427L31.9412 15.6566C32.1526 15.3581 32.415 15.1602 32.7286 15.063C33.0422 14.9658 33.3737 14.9811 33.7232 15.1088C34.0727 15.2366 34.3249 15.4476 34.4796 15.742C34.6343 16.0364 34.6909 16.3579 34.6495 16.7064L33.1928 28.5519H40.6235C41.2037 28.5519 41.6147 28.8178 41.8564 29.3497C42.0995 29.8815 42.0339 30.3744 41.6596 30.8285L28.6797 46.4566C28.4586 46.7204 28.192 46.8891 27.8798 46.9627C27.5662 47.0349 27.2568 47.0023 26.9515 46.8648C26.6462 46.7287 26.4127 46.5225 26.2511 46.2462C26.0909 45.9698 26.0321 45.6574 26.075 45.3089L27.5731 34.8006Z" fill="white"/>
</svg>
