<svg width="62" height="62" viewBox="0 0 62 62" fill="none" xmlns="http://www.w3.org/2000/svg">
<rect width="62" height="62" rx="31" fill="#A9BFC2"/>
<path fill-rule="evenodd" clip-rule="evenodd" d="M31.5315 16C27.7075 16 24.2237 17.2849 22.1623 18.3347C21.976 18.4294 21.8022 18.5218 21.6408 18.612C21.3208 18.7894 21.0482 18.9547 20.8314 19.1003L23.1765 22.6122L24.2805 23.0591C28.5947 25.2732 34.3803 25.2732 38.6954 23.0591L39.9483 22.3977L42.1656 19.1003C41.7058 18.7964 41.2283 18.5211 40.7357 18.2761C38.6844 17.2375 35.2836 16 31.5324 16M26.0786 19.9752C25.2484 19.8163 24.4283 19.6069 23.6227 19.3483C25.5537 18.4759 28.4313 17.5501 31.5324 17.5501C33.6802 17.5501 35.7111 17.9945 37.3908 18.5577C35.4225 18.8393 33.3221 19.3173 31.3207 19.9055C29.7461 20.3688 27.9056 20.3188 26.0786 19.9752ZM39.5902 24.3362L39.382 24.443C34.636 26.8785 28.3407 26.8785 23.5947 24.443L23.3975 24.3414C16.2666 32.2996 10.823 47 31.5315 47C52.24 47 46.6644 32.0266 39.5902 24.3362ZM30.6519 31.5013C30.2028 31.5013 29.7722 31.6828 29.4546 32.0058C29.1371 32.3288 28.9587 32.7669 28.9587 33.2237C28.9587 33.6805 29.1371 34.1185 29.4546 34.4416C29.7722 34.7646 30.2028 34.946 30.6519 34.946V31.5013ZM32.3451 29.7789V28.9177H30.6519V29.7789C29.7538 29.7789 28.8925 30.1419 28.2574 30.7879C27.6223 31.4339 27.2655 32.3101 27.2655 33.2237C27.2655 34.1373 27.6223 35.0134 28.2574 35.6594C28.8925 36.3055 29.7538 36.6684 30.6519 36.6684V40.1131C29.9154 40.1131 29.2881 39.6352 29.0544 38.9652C29.0197 38.8555 28.9638 38.7541 28.8899 38.6669C28.816 38.5796 28.7257 38.5083 28.6243 38.4572C28.5229 38.4061 28.4124 38.3762 28.2994 38.3693C28.1864 38.3624 28.0732 38.3785 27.9664 38.4169C27.8597 38.4553 27.7616 38.515 27.678 38.5926C27.5944 38.6702 27.5269 38.7641 27.4795 38.8687C27.4322 38.9732 27.4059 39.0864 27.4023 39.2015C27.3987 39.3166 27.4178 39.4313 27.4586 39.5387C27.692 40.2105 28.1244 40.7921 28.6963 41.2034C29.2683 41.6148 29.9515 41.8356 30.6519 41.8355V42.6967H32.3451V41.8355C33.2432 41.8355 34.1046 41.4726 34.7396 40.8265C35.3747 40.1805 35.7315 39.3044 35.7315 38.3908C35.7315 37.4772 35.3747 36.601 34.7396 35.955C34.1046 35.3089 33.2432 34.946 32.3451 34.946V31.5013C33.0816 31.5013 33.709 31.9792 33.9426 32.6492C33.9773 32.7589 34.0332 32.8603 34.1071 32.9475C34.181 33.0348 34.2713 33.1061 34.3727 33.1572C34.4742 33.2083 34.5846 33.2382 34.6976 33.2451C34.8106 33.2521 34.9238 33.2359 35.0306 33.1975C35.1373 33.1591 35.2354 33.0994 35.319 33.0218C35.4026 32.9442 35.4701 32.8503 35.5175 32.7458C35.5648 32.6412 35.5911 32.528 35.5947 32.4129C35.5983 32.2978 35.5792 32.1831 35.5384 32.0757C35.305 31.4039 34.8726 30.8223 34.3007 30.411C33.7288 29.9996 33.0455 29.7788 32.3451 29.7789ZM32.3451 36.6684V40.1131C32.7942 40.1131 33.2248 39.9317 33.5424 39.6087C33.8599 39.2856 34.0383 38.8476 34.0383 38.3908C34.0383 37.934 33.8599 37.4959 33.5424 37.1729C33.2248 36.8499 32.7942 36.6684 32.3451 36.6684Z" fill="white"/>
</svg>
