<svg width="62" height="62" viewBox="0 0 62 62" fill="none" xmlns="http://www.w3.org/2000/svg">
<rect width="62" height="62" rx="31" fill="#A5BEA0"/>
<path d="M30.375 16.0016C29.466 16.1777 28.398 16.558 26.757 17.1425L25.8975 17.4465C21.387 19.052 19.1325 19.8532 18.567 20.6918C18.012 21.5117 18 23.9152 18 28.6849L30.375 24.3984V16.0016ZM30.375 26.8612L18 31.1477V31.461C18 40.2491 24.3585 44.5138 28.3485 46.3251C29.1135 46.6727 29.6085 46.8971 30.375 46.9984V26.8612ZM32.625 47V26.8612L45 31.1477V31.461C45 40.2491 38.6415 44.5138 34.6515 46.3251C33.8865 46.6727 33.3915 46.8987 32.625 47ZM32.625 24.3984V16C33.534 16.1761 34.602 16.5565 36.243 17.141L37.1025 17.4465C41.613 19.0504 43.8675 19.8516 44.433 20.6902C44.988 21.5101 45 23.9137 45 28.6818L32.625 24.3984Z" fill="white"/>
</svg>
